<?xml version="1.0" standalone="no"?>
<!DOCTYPE svg PUBLIC "-//W3C//DTD SVG 20010904//EN"
 "http://www.w3.org/TR/2001/REC-SVG-20010904/DTD/svg10.dtd">
<svg version="1.0" xmlns="http://www.w3.org/2000/svg"
 width="134.000000pt" height="79.000000pt" viewBox="0 0 134.000000 79.000000"
 preserveAspectRatio="xMidYMid meet">

<g transform="translate(0.000000,79.000000) scale(0.100000,-0.100000)"
fill="#000000" stroke="none">
<path d="M617 756 c-69 -25 -107 -78 -107 -148 0 -155 216 -205 288 -67 65
123 -52 261 -181 215z"/>
<path d="M44 717 c-2 -7 -3 -118 -2 -247 l3 -235 120 -5 c72 -3 119 -9 118
-15 -1 -5 -12 -12 -25 -15 -40 -10 -28 -35 16 -35 35 0 40 3 47 28 4 16 13 35
20 44 8 8 19 30 25 49 l11 33 -151 3 -151 3 0 185 0 185 214 5 c159 4 215 8
219 18 6 18 -456 18 -464 -1z"/>
<path d="M820 715 c10 -13 47 -15 221 -15 l209 0 0 -190 0 -190 -151 0 -150 0
6 -22 c4 -13 15 -35 26 -50 11 -15 22 -42 26 -58 5 -29 8 -31 47 -28 48 4 59
31 14 36 -16 2 -28 9 -28 18 0 11 22 14 120 14 116 0 120 1 125 22 3 13 4 124
3 248 l-3 225 -239 3 c-213 2 -237 1 -226 -13z"/>
<path d="M130 604 c0 -11 8 -14 32 -12 46 4 49 28 4 28 -26 0 -36 -4 -36 -16z"/>
<path d="M230 605 c0 -9 9 -15 25 -15 16 0 25 6 25 15 0 9 -9 15 -25 15 -16 0
-25 -6 -25 -15z"/>
<path d="M310 605 c0 -8 9 -15 20 -15 11 0 20 7 20 15 0 8 -9 15 -20 15 -11 0
-20 -7 -20 -15z"/>
<path d="M390 605 c0 -10 11 -15 35 -15 24 0 35 5 35 15 0 10 -11 15 -35 15
-24 0 -35 -5 -35 -15z"/>
<path d="M870 605 c0 -10 11 -15 35 -15 24 0 35 5 35 15 0 10 -11 15 -35 15
-24 0 -35 -5 -35 -15z"/>
<path d="M970 605 c0 -9 9 -15 25 -15 16 0 25 6 25 15 0 9 -9 15 -25 15 -16 0
-25 -6 -25 -15z"/>
<path d="M1050 605 c0 -9 9 -15 25 -15 16 0 25 6 25 15 0 9 -9 15 -25 15 -16
0 -25 -6 -25 -15z"/>
<path d="M1130 605 c0 -10 11 -15 35 -15 24 0 35 5 35 15 0 10 -11 15 -35 15
-24 0 -35 -5 -35 -15z"/>
<path d="M130 515 c0 -8 9 -15 20 -15 11 0 20 7 20 15 0 8 -9 15 -20 15 -11 0
-20 -7 -20 -15z"/>
<path d="M200 515 c0 -11 12 -15 45 -15 33 0 45 4 45 15 0 11 -12 15 -45 15
-33 0 -45 -4 -45 -15z"/>
<path d="M320 515 c0 -9 9 -15 25 -15 16 0 25 6 25 15 0 9 -9 15 -25 15 -16 0
-25 -6 -25 -15z"/>
<path d="M400 515 c0 -10 10 -15 30 -15 20 0 30 5 30 15 0 10 -10 15 -30 15
-20 0 -30 -5 -30 -15z"/>
<path d="M870 515 c0 -8 9 -15 20 -15 11 0 20 7 20 15 0 8 -9 15 -20 15 -11 0
-20 -7 -20 -15z"/>
<path d="M940 515 c0 -11 12 -15 45 -15 33 0 45 4 45 15 0 11 -12 15 -45 15
-33 0 -45 -4 -45 -15z"/>
<path d="M1060 515 c0 -9 9 -15 25 -15 16 0 25 6 25 15 0 9 -9 15 -25 15 -16
0 -25 -6 -25 -15z"/>
<path d="M1140 515 c0 -10 10 -15 30 -15 20 0 30 5 30 15 0 10 -10 15 -30 15
-20 0 -30 -5 -30 -15z"/>
<path d="M130 426 c0 -12 10 -16 36 -16 45 0 42 24 -4 28 -24 2 -32 -1 -32
-12z"/>
<path d="M227 433 c-13 -12 -7 -23 13 -23 11 0 20 7 20 15 0 15 -21 21 -33 8z"/>
<path d="M290 425 c0 -9 9 -15 25 -15 16 0 25 6 25 15 0 9 -9 15 -25 15 -16 0
-25 -6 -25 -15z"/>
<path d="M870 425 c0 -10 11 -15 35 -15 24 0 35 5 35 15 0 10 -11 15 -35 15
-24 0 -35 -5 -35 -15z"/>
<path d="M967 433 c-13 -12 -7 -23 13 -23 11 0 20 7 20 15 0 15 -21 21 -33 8z"/>
<path d="M1030 426 c0 -11 10 -16 31 -16 38 0 35 24 -4 28 -19 2 -27 -1 -27
-12z"/>
<path d="M505 396 c-46 -20 -93 -72 -105 -115 -5 -21 -19 -46 -30 -56 -17 -16
-20 -31 -20 -107 0 -72 3 -88 15 -88 12 0 15 15 15 78 0 47 5 83 12 90 9 9 84
12 275 12 l263 0 10 -26 c6 -14 10 -54 10 -90 0 -50 3 -64 15 -64 12 0 15 16
15 84 0 74 -3 88 -23 113 -13 15 -27 40 -31 55 -9 37 -64 98 -103 114 -44 19
-276 18 -318 0z"/>
<path d="M100 115 c0 -12 19 -15 110 -15 91 0 110 3 110 15 0 12 -19 15 -110
15 -91 0 -110 -3 -110 -15z"/>
<path d="M1010 115 c0 -12 19 -15 110 -15 91 0 110 3 110 15 0 12 -19 15 -110
15 -91 0 -110 -3 -110 -15z"/>
</g>
</svg>
